<mxfile host="Electron" modified="2024-05-25T19:18:25.016Z" agent="Mozilla/5.0 (Windows NT 10.0; Win64; x64) AppleWebKit/537.36 (KHTML, like Gecko) draw.io/21.2.1 Chrome/112.0.5615.87 Electron/24.1.2 Safari/537.36" etag="bldJowxOhkdzhj3gcFu6" version="21.2.1" type="device">
  <diagram name="Seite-1" id="m7jW1_ljmuLcYEWoNSVU">
    <mxGraphModel dx="829" dy="485" grid="1" gridSize="10" guides="1" tooltips="1" connect="1" arrows="1" fold="1" page="1" pageScale="1" pageWidth="827" pageHeight="1169" math="0" shadow="0">
      <root>
        <mxCell id="0" />
        <mxCell id="1" parent="0" />
        <mxCell id="wA_QvRdS1_e6aPnyoqsf-1" value="&lt;b&gt;Sensor&lt;br&gt;&lt;/b&gt;Feuchtigkeitssensor &amp;amp; Chip" style="rounded=0;whiteSpace=wrap;html=1;" parent="1" vertex="1">
          <mxGeometry x="80" y="130" width="280" height="80" as="geometry" />
        </mxCell>
        <mxCell id="wA_QvRdS1_e6aPnyoqsf-3" value="Mitteilung an das HUB&lt;br&gt;wenn zuwenig Feuchtigkeit&lt;br&gt;gemessen wird" style="endArrow=classic;html=1;rounded=0;exitX=1;exitY=0.75;exitDx=0;exitDy=0;entryX=0.5;entryY=0;entryDx=0;entryDy=0;dashed=1;" parent="1" source="wA_QvRdS1_e6aPnyoqsf-1" target="wA_QvRdS1_e6aPnyoqsf-4" edge="1">
          <mxGeometry x="-0.1515" width="50" height="50" relative="1" as="geometry">
            <mxPoint x="390" y="280" as="sourcePoint" />
            <mxPoint x="580" y="250" as="targetPoint" />
            <Array as="points">
              <mxPoint x="580" y="190" />
            </Array>
            <mxPoint as="offset" />
          </mxGeometry>
        </mxCell>
        <mxCell id="wA_QvRdS1_e6aPnyoqsf-4" value="&lt;b&gt;HUB&lt;/b&gt;&lt;br&gt;Raspberry PI" style="rounded=0;whiteSpace=wrap;html=1;" parent="1" vertex="1">
          <mxGeometry x="440" y="280" width="280" height="80" as="geometry" />
        </mxCell>
        <mxCell id="wA_QvRdS1_e6aPnyoqsf-7" value="Prüft immer um 2:55, wird vom HUB in den Schalf veretzt nach&amp;nbsp;allen Updates, Schläft bis zum nächsten Überprüfungszeitpunt" style="text;html=1;strokeColor=none;fillColor=none;align=center;verticalAlign=middle;whiteSpace=wrap;rounded=0;" parent="1" vertex="1">
          <mxGeometry x="80" y="210" width="280" height="50" as="geometry" />
        </mxCell>
        <mxCell id="wA_QvRdS1_e6aPnyoqsf-8" value="&lt;b&gt;Wassersteuerung&lt;br&gt;&lt;/b&gt;Ventil &amp;amp; Chip" style="rounded=0;whiteSpace=wrap;html=1;" parent="1" vertex="1">
          <mxGeometry x="80" y="400" width="280" height="80" as="geometry" />
        </mxCell>
        <mxCell id="wA_QvRdS1_e6aPnyoqsf-9" value="Abfrage ob bewässerung&amp;nbsp;&lt;br&gt;benötigt wird" style="endArrow=classic;html=1;rounded=0;exitX=1;exitY=0.25;exitDx=0;exitDy=0;entryX=0.5;entryY=1;entryDx=0;entryDy=0;dashed=1;" parent="1" source="wA_QvRdS1_e6aPnyoqsf-8" target="wA_QvRdS1_e6aPnyoqsf-4" edge="1">
          <mxGeometry width="50" height="50" relative="1" as="geometry">
            <mxPoint x="530" y="500" as="sourcePoint" />
            <mxPoint x="580" y="450" as="targetPoint" />
            <Array as="points">
              <mxPoint x="580" y="420" />
            </Array>
          </mxGeometry>
        </mxCell>
        <mxCell id="wA_QvRdS1_e6aPnyoqsf-10" value="Befehl für das Bewässern&lt;br&gt;wenn dafür ein bedarf &lt;br&gt;gemeldet wurde" style="endArrow=classic;html=1;rounded=0;exitX=0;exitY=0.5;exitDx=0;exitDy=0;entryX=0.5;entryY=0;entryDx=0;entryDy=0;dashed=1;" parent="1" source="wA_QvRdS1_e6aPnyoqsf-4" target="wA_QvRdS1_e6aPnyoqsf-8" edge="1">
          <mxGeometry width="50" height="50" relative="1" as="geometry">
            <mxPoint x="370" y="450" as="sourcePoint" />
            <mxPoint x="590" y="370" as="targetPoint" />
            <Array as="points">
              <mxPoint x="220" y="320" />
            </Array>
          </mxGeometry>
        </mxCell>
        <mxCell id="wA_QvRdS1_e6aPnyoqsf-13" value="Text" style="text;html=1;strokeColor=none;fillColor=none;align=center;verticalAlign=middle;whiteSpace=wrap;rounded=0;" parent="1" vertex="1">
          <mxGeometry x="380" y="280" width="60" height="30" as="geometry" />
        </mxCell>
        <mxCell id="wA_QvRdS1_e6aPnyoqsf-14" value="Sendet um 3:00 Uhr eine Abfrage an das Hub,&lt;br&gt;wird vom HUB in den Schalf veretzt nach&amp;nbsp;allen Updates, Schläft bis zum nächsten Überprüfungszeitpunt" style="text;html=1;strokeColor=none;fillColor=none;align=center;verticalAlign=middle;whiteSpace=wrap;rounded=0;" parent="1" vertex="1">
          <mxGeometry x="80" y="480" width="280" height="70" as="geometry" />
        </mxCell>
        <mxCell id="wA_QvRdS1_e6aPnyoqsf-15" value="" style="endArrow=none;dashed=1;html=1;rounded=0;" parent="1" edge="1">
          <mxGeometry width="50" height="50" relative="1" as="geometry">
            <mxPoint x="80" y="600" as="sourcePoint" />
            <mxPoint x="160" y="600" as="targetPoint" />
          </mxGeometry>
        </mxCell>
        <mxCell id="wA_QvRdS1_e6aPnyoqsf-16" value="Kommunikation über MQTT" style="text;html=1;strokeColor=none;fillColor=none;align=left;verticalAlign=middle;whiteSpace=wrap;rounded=0;" parent="1" vertex="1">
          <mxGeometry x="175" y="584" width="185" height="30" as="geometry" />
        </mxCell>
        <mxCell id="wA_QvRdS1_e6aPnyoqsf-17" value="Der Prüfzeitpunkt ist Abhängig von der Einstellung und wird vom HUB an andere Elemente übermittelt. Er dient der Einspaarung von Strom der Chips." style="text;html=1;strokeColor=none;fillColor=none;align=left;verticalAlign=middle;whiteSpace=wrap;rounded=0;" parent="1" vertex="1">
          <mxGeometry x="80" y="614" width="660" height="30" as="geometry" />
        </mxCell>
        <mxCell id="F_Lq0A9R-jjIhWdRd6Zo-1" value="Sync settings" style="endArrow=classic;html=1;rounded=0;exitX=0.75;exitY=0;exitDx=0;exitDy=0;entryX=1;entryY=0.25;entryDx=0;entryDy=0;dashed=1;" edge="1" parent="1" source="wA_QvRdS1_e6aPnyoqsf-4" target="wA_QvRdS1_e6aPnyoqsf-1">
          <mxGeometry x="-0.1515" width="50" height="50" relative="1" as="geometry">
            <mxPoint x="370" y="180" as="sourcePoint" />
            <mxPoint x="590" y="290" as="targetPoint" />
            <Array as="points">
              <mxPoint x="650" y="150" />
            </Array>
            <mxPoint as="offset" />
          </mxGeometry>
        </mxCell>
        <mxCell id="F_Lq0A9R-jjIhWdRd6Zo-2" value="Sync settings" style="endArrow=classic;html=1;rounded=0;exitX=0.75;exitY=1;exitDx=0;exitDy=0;entryX=1;entryY=0.75;entryDx=0;entryDy=0;dashed=1;" edge="1" parent="1" source="wA_QvRdS1_e6aPnyoqsf-4" target="wA_QvRdS1_e6aPnyoqsf-8">
          <mxGeometry x="-0.1515" width="50" height="50" relative="1" as="geometry">
            <mxPoint x="660" y="290" as="sourcePoint" />
            <mxPoint x="370" y="160" as="targetPoint" />
            <Array as="points">
              <mxPoint x="650" y="460" />
            </Array>
            <mxPoint as="offset" />
          </mxGeometry>
        </mxCell>
        <mxCell id="F_Lq0A9R-jjIhWdRd6Zo-3" value="1" style="text;html=1;strokeColor=default;fillColor=none;align=center;verticalAlign=middle;whiteSpace=wrap;rounded=1;arcSize=50;fontSize=10;spacing=0;spacingBottom=-2;" vertex="1" parent="1">
          <mxGeometry x="610" y="426" width="20" height="20" as="geometry" />
        </mxCell>
        <mxCell id="F_Lq0A9R-jjIhWdRd6Zo-6" value="1" style="text;html=1;strokeColor=default;fillColor=none;align=center;verticalAlign=middle;whiteSpace=wrap;rounded=1;arcSize=50;fontSize=10;spacing=0;spacingBottom=-2;" vertex="1" parent="1">
          <mxGeometry x="610" y="167" width="20" height="20" as="geometry" />
        </mxCell>
        <mxCell id="F_Lq0A9R-jjIhWdRd6Zo-8" value="2" style="text;html=1;strokeColor=default;fillColor=none;align=center;verticalAlign=middle;whiteSpace=wrap;rounded=1;arcSize=50;fontSize=10;spacing=0;spacingBottom=-2;" vertex="1" parent="1">
          <mxGeometry x="550" y="200" width="20" height="20" as="geometry" />
        </mxCell>
        <mxCell id="F_Lq0A9R-jjIhWdRd6Zo-9" value="2" style="text;html=1;strokeColor=default;fillColor=none;align=center;verticalAlign=middle;whiteSpace=wrap;rounded=1;arcSize=50;fontSize=10;spacing=0;spacingBottom=-2;" vertex="1" parent="1">
          <mxGeometry x="550" y="380" width="20" height="20" as="geometry" />
        </mxCell>
        <mxCell id="F_Lq0A9R-jjIhWdRd6Zo-10" value="3" style="text;html=1;strokeColor=default;fillColor=none;align=center;verticalAlign=middle;whiteSpace=wrap;rounded=1;arcSize=50;fontSize=10;spacing=0;spacingBottom=-2;" vertex="1" parent="1">
          <mxGeometry x="230" y="347" width="20" height="20" as="geometry" />
        </mxCell>
      </root>
    </mxGraphModel>
  </diagram>
</mxfile>
